<?xml version="1.0" encoding="UTF-8" standalone="no"?>
<!DOCTYPE svg PUBLIC "-//W3C//DTD SVG 1.1//EN"
 "http://www.w3.org/Graphics/SVG/1.1/DTD/svg11.dtd">
<!-- Generated by graphviz version 2.38.0 (20140413.2041)
 -->
<!-- Title: snakemake_dag Pages: 1 -->
<svg width="464pt" height="260pt"
 viewBox="0.00 0.00 463.50 260.00" xmlns="http://www.w3.org/2000/svg" xmlns:xlink="http://www.w3.org/1999/xlink">
<g id="graph0" class="graph" transform="scale(1 1) rotate(0) translate(4 256)">
<title>snakemake_dag</title>
<polygon fill="white" stroke="none" points="-4,4 -4,-256 459.5,-256 459.5,4 -4,4"/>
<!-- 0 -->
<g id="node1" class="node"><title>0</title>
<path fill="none" stroke="#56d88a" stroke-width="2" d="M293,-36C293,-36 263,-36 263,-36 257,-36 251,-30 251,-24 251,-24 251,-12 251,-12 251,-6 257,-0 263,-0 263,-0 293,-0 293,-0 299,-0 305,-6 305,-12 305,-12 305,-24 305,-24 305,-30 299,-36 293,-36"/>
<text text-anchor="middle" x="278" y="-15.5" font-family="sans" font-size="10.00">all</text>
</g>
<!-- 1 -->
<g id="node2" class="node"><title>1</title>
<path fill="none" stroke="#88d856" stroke-width="2" stroke-dasharray="5,2" d="M214,-180C214,-180 12,-180 12,-180 6,-180 0,-174 0,-168 0,-168 0,-156 0,-156 0,-150 6,-144 12,-144 12,-144 214,-144 214,-144 220,-144 226,-150 226,-156 226,-156 226,-168 226,-168 226,-174 220,-180 214,-180"/>
<text text-anchor="middle" x="113" y="-165" font-family="sans" font-size="10.00">remove_poor_quality_and_duplicate_reads</text>
<text text-anchor="middle" x="113" y="-154" font-family="sans" font-size="10.00">folder: PAIRED_SAMPLES_ADN_TEST</text>
</g>
<!-- 1&#45;&gt;0 -->
<g id="edge1" class="edge"><title>1&#45;&gt;0</title>
<path fill="none" stroke="grey" stroke-width="2" d="M112.013,-143.776C111.833,-124.091 114.569,-92.0174 132,-72 159.484,-40.438 207.306,-27.6653 240.704,-22.5002"/>
<polygon fill="grey" stroke="grey" stroke-width="2" points="241.57,-25.9138 250.996,-21.0764 240.611,-18.9798 241.57,-25.9138"/>
</g>
<!-- 4 -->
<g id="node5" class="node"><title>4</title>
<path fill="none" stroke="#d85656" stroke-width="2" d="M292.5,-108C292.5,-108 153.5,-108 153.5,-108 147.5,-108 141.5,-102 141.5,-96 141.5,-96 141.5,-84 141.5,-84 141.5,-78 147.5,-72 153.5,-72 153.5,-72 292.5,-72 292.5,-72 298.5,-72 304.5,-78 304.5,-84 304.5,-84 304.5,-96 304.5,-96 304.5,-102 298.5,-108 292.5,-108"/>
<text text-anchor="middle" x="223" y="-87.5" font-family="sans" font-size="10.00">classify_reads_with_database</text>
</g>
<!-- 1&#45;&gt;4 -->
<g id="edge6" class="edge"><title>1&#45;&gt;4</title>
<path fill="none" stroke="grey" stroke-width="2" d="M139.909,-143.876C154.158,-134.808 171.846,-123.552 187.236,-113.759"/>
<polygon fill="grey" stroke="grey" stroke-width="2" points="189.43,-116.511 195.988,-108.19 185.672,-110.606 189.43,-116.511"/>
</g>
<!-- 2 -->
<g id="node3" class="node"><title>2</title>
<path fill="none" stroke="#56c1d8" stroke-width="2" stroke-dasharray="5,2" d="M443.5,-252C443.5,-252 300.5,-252 300.5,-252 294.5,-252 288.5,-246 288.5,-240 288.5,-240 288.5,-228 288.5,-228 288.5,-222 294.5,-216 300.5,-216 300.5,-216 443.5,-216 443.5,-216 449.5,-216 455.5,-222 455.5,-228 455.5,-228 455.5,-240 455.5,-240 455.5,-246 449.5,-252 443.5,-252"/>
<text text-anchor="middle" x="372" y="-231.5" font-family="sans" font-size="10.00">download_fda_argos_database</text>
</g>
<!-- 2&#45;&gt;0 -->
<g id="edge2" class="edge"><title>2&#45;&gt;0</title>
<path fill="none" stroke="grey" stroke-width="2" d="M385.912,-215.745C398.697,-197.673 414.228,-168.555 404,-144 385.751,-100.19 343.853,-63.8496 313.367,-41.8485"/>
<polygon fill="grey" stroke="grey" stroke-width="2" points="315.292,-38.9234 305.1,-36.029 311.263,-44.6474 315.292,-38.9234"/>
</g>
<!-- 3 -->
<g id="node4" class="node"><title>3</title>
<path fill="none" stroke="#d8bc56" stroke-width="2" d="M383.5,-180C383.5,-180 256.5,-180 256.5,-180 250.5,-180 244.5,-174 244.5,-168 244.5,-168 244.5,-156 244.5,-156 244.5,-150 250.5,-144 256.5,-144 256.5,-144 383.5,-144 383.5,-144 389.5,-144 395.5,-150 395.5,-156 395.5,-156 395.5,-168 395.5,-168 395.5,-174 389.5,-180 383.5,-180"/>
<text text-anchor="middle" x="320" y="-159.5" font-family="sans" font-size="10.00">create_fda_argos_database</text>
</g>
<!-- 2&#45;&gt;3 -->
<g id="edge5" class="edge"><title>2&#45;&gt;3</title>
<path fill="none" stroke="grey" stroke-width="2" d="M359.146,-215.697C352.975,-207.389 345.463,-197.277 338.676,-188.141"/>
<polygon fill="grey" stroke="grey" stroke-width="2" points="341.479,-186.045 332.706,-180.104 335.86,-190.219 341.479,-186.045"/>
</g>
<!-- 3&#45;&gt;0 -->
<g id="edge3" class="edge"><title>3&#45;&gt;0</title>
<path fill="none" stroke="grey" stroke-width="2" d="M321.151,-143.756C321.804,-125.44 321.212,-95.8917 313,-72 309.701,-62.4031 304.251,-52.8566 298.623,-44.5647"/>
<polygon fill="grey" stroke="grey" stroke-width="2" points="301.453,-42.5061 292.775,-36.4282 295.769,-46.5913 301.453,-42.5061"/>
</g>
<!-- 3&#45;&gt;4 -->
<g id="edge7" class="edge"><title>3&#45;&gt;4</title>
<path fill="none" stroke="grey" stroke-width="2" d="M296.022,-143.697C283.689,-134.796 268.484,-123.823 255.147,-114.199"/>
<polygon fill="grey" stroke="grey" stroke-width="2" points="256.859,-111.118 246.702,-108.104 252.763,-116.794 256.859,-111.118"/>
</g>
<!-- 4&#45;&gt;0 -->
<g id="edge4" class="edge"><title>4&#45;&gt;0</title>
<path fill="none" stroke="grey" stroke-width="2" d="M236.596,-71.6966C243.123,-63.3893 251.068,-53.2771 258.247,-44.1407"/>
<polygon fill="grey" stroke="grey" stroke-width="2" points="261.135,-46.1299 264.561,-36.1043 255.631,-41.8051 261.135,-46.1299"/>
</g>
</g>
</svg>
