<?xml version="1.0" encoding="UTF-8" standalone="no"?>
<!DOCTYPE svg PUBLIC "-//W3C//DTD SVG 1.1//EN"
 "http://www.w3.org/Graphics/SVG/1.1/DTD/svg11.dtd">
<!-- Generated by graphviz version 2.38.0 (20140413.2041)
 -->
<!-- Title: snakemake_dag Pages: 1 -->
<svg width="258pt" height="188pt"
 viewBox="0.00 0.00 257.50 188.00" xmlns="http://www.w3.org/2000/svg" xmlns:xlink="http://www.w3.org/1999/xlink">
<g id="graph0" class="graph" transform="scale(1 1) rotate(0) translate(4 184)">
<title>snakemake_dag</title>
<polygon fill="white" stroke="none" points="-4,4 -4,-184 253.5,-184 253.5,4 -4,4"/>
<!-- 0 -->
<g id="node1" class="node"><title>0</title>
<path fill="none" stroke="#d85656" stroke-width="2" d="M128,-36C128,-36 98,-36 98,-36 92,-36 86,-30 86,-24 86,-24 86,-12 86,-12 86,-6 92,-0 98,-0 98,-0 128,-0 128,-0 134,-0 140,-6 140,-12 140,-12 140,-24 140,-24 140,-30 134,-36 128,-36"/>
<text text-anchor="middle" x="113" y="-15.5" font-family="sans" font-size="10.00">all</text>
</g>
<!-- 1 -->
<g id="node2" class="node"><title>1</title>
<path fill="none" stroke="#56d8a9" stroke-width="2" d="M214,-180C214,-180 12,-180 12,-180 6,-180 0,-174 0,-168 0,-168 0,-156 0,-156 0,-150 6,-144 12,-144 12,-144 214,-144 214,-144 220,-144 226,-150 226,-156 226,-156 226,-168 226,-168 226,-174 220,-180 214,-180"/>
<text text-anchor="middle" x="113" y="-165" font-family="sans" font-size="10.00">remove_poor_quality_and_duplicate_reads</text>
<text text-anchor="middle" x="113" y="-154" font-family="sans" font-size="10.00">folder: PAIRED_SAMPLES_ADN_TEST</text>
</g>
<!-- 1&#45;&gt;0 -->
<g id="edge1" class="edge"><title>1&#45;&gt;0</title>
<path fill="none" stroke="grey" stroke-width="2" d="M97.3901,-143.774C89.6271,-134.03 81.0541,-121.184 77,-108 72.2972,-92.7067 72.2972,-87.2933 77,-72 80.0089,-62.2153 85.507,-52.6161 91.3157,-44.3336"/>
<polygon fill="grey" stroke="grey" stroke-width="2" points="94.1948,-46.3279 97.3901,-36.2264 88.5928,-42.1306 94.1948,-46.3279"/>
</g>
<!-- 2 -->
<g id="node3" class="node"><title>2</title>
<path fill="none" stroke="#afd856" stroke-width="2" d="M237.5,-108C237.5,-108 98.5,-108 98.5,-108 92.5,-108 86.5,-102 86.5,-96 86.5,-96 86.5,-84 86.5,-84 86.5,-78 92.5,-72 98.5,-72 98.5,-72 237.5,-72 237.5,-72 243.5,-72 249.5,-78 249.5,-84 249.5,-84 249.5,-96 249.5,-96 249.5,-102 243.5,-108 237.5,-108"/>
<text text-anchor="middle" x="168" y="-87.5" font-family="sans" font-size="10.00">classify_reads_with_database</text>
</g>
<!-- 1&#45;&gt;2 -->
<g id="edge3" class="edge"><title>1&#45;&gt;2</title>
<path fill="none" stroke="grey" stroke-width="2" d="M126.596,-143.697C133.123,-135.389 141.068,-125.277 148.247,-116.141"/>
<polygon fill="grey" stroke="grey" stroke-width="2" points="151.135,-118.13 154.561,-108.104 145.631,-113.805 151.135,-118.13"/>
</g>
<!-- 2&#45;&gt;0 -->
<g id="edge2" class="edge"><title>2&#45;&gt;0</title>
<path fill="none" stroke="grey" stroke-width="2" d="M154.404,-71.6966C147.877,-63.3893 139.932,-53.2771 132.753,-44.1407"/>
<polygon fill="grey" stroke="grey" stroke-width="2" points="135.369,-41.8051 126.439,-36.1043 129.865,-46.1299 135.369,-41.8051"/>
</g>
</g>
</svg>
