<?xml version="1.0" encoding="UTF-8" standalone="no"?>
<!DOCTYPE svg PUBLIC "-//W3C//DTD SVG 1.1//EN"
 "http://www.w3.org/Graphics/SVG/1.1/DTD/svg11.dtd">
<!-- Generated by graphviz version 2.38.0 (20140413.2041)
 -->
<!-- Title: snakemake_dag Pages: 1 -->
<svg width="422pt" height="116pt"
 viewBox="0.00 0.00 421.50 116.00" xmlns="http://www.w3.org/2000/svg" xmlns:xlink="http://www.w3.org/1999/xlink">
<g id="graph0" class="graph" transform="scale(1 1) rotate(0) translate(4 112)">
<title>snakemake_dag</title>
<polygon fill="white" stroke="none" points="-4,4 -4,-112 417.5,-112 417.5,4 -4,4"/>
<!-- 0 -->
<g id="node1" class="node"><title>0</title>
<path fill="none" stroke="#59d856" stroke-width="2" d="M219,-36C219,-36 189,-36 189,-36 183,-36 177,-30 177,-24 177,-24 177,-12 177,-12 177,-6 183,-0 189,-0 189,-0 219,-0 219,-0 225,-0 231,-6 231,-12 231,-12 231,-24 231,-24 231,-30 225,-36 219,-36"/>
<text text-anchor="middle" x="204" y="-15.5" font-family="sans" font-size="10.00">all</text>
</g>
<!-- 1 -->
<g id="node2" class="node"><title>1</title>
<path fill="none" stroke="#d85656" stroke-width="2" d="M180,-108C180,-108 12,-108 12,-108 6,-108 0,-102 0,-96 0,-96 0,-84 0,-84 0,-78 6,-72 12,-72 12,-72 180,-72 180,-72 186,-72 192,-78 192,-84 192,-84 192,-96 192,-96 192,-102 186,-108 180,-108"/>
<text text-anchor="middle" x="96" y="-93" font-family="sans" font-size="10.00">rm_poor_quality_and_duplicate</text>
<text text-anchor="middle" x="96" y="-82" font-family="sans" font-size="10.00">folder: PAIRED_SAMPLES_ADN_TEST</text>
</g>
<!-- 1&#45;&gt;0 -->
<g id="edge1" class="edge"><title>1&#45;&gt;0</title>
<path fill="none" stroke="grey" stroke-width="2" d="M122.42,-71.8761C136.41,-62.8083 153.776,-51.5523 168.886,-41.7592"/>
<polygon fill="grey" stroke="grey" stroke-width="2" points="170.991,-44.5658 177.479,-36.1898 167.183,-38.6917 170.991,-44.5658"/>
</g>
<!-- 2 -->
<g id="node3" class="node"><title>2</title>
<path fill="none" stroke="#d85656" stroke-width="2" d="M401.5,-108C401.5,-108 222.5,-108 222.5,-108 216.5,-108 210.5,-102 210.5,-96 210.5,-96 210.5,-84 210.5,-84 210.5,-78 216.5,-72 222.5,-72 222.5,-72 401.5,-72 401.5,-72 407.5,-72 413.5,-78 413.5,-84 413.5,-84 413.5,-96 413.5,-96 413.5,-102 407.5,-108 401.5,-108"/>
<text text-anchor="middle" x="312" y="-93" font-family="sans" font-size="10.00">rm_poor_quality_and_duplicate</text>
<text text-anchor="middle" x="312" y="-82" font-family="sans" font-size="10.00">folder: PAIRED_SAMPLES_ADN_TEST_2</text>
</g>
<!-- 2&#45;&gt;0 -->
<g id="edge2" class="edge"><title>2&#45;&gt;0</title>
<path fill="none" stroke="grey" stroke-width="2" d="M285.58,-71.8761C271.59,-62.8083 254.224,-51.5523 239.114,-41.7592"/>
<polygon fill="grey" stroke="grey" stroke-width="2" points="240.817,-38.6917 230.521,-36.1898 237.009,-44.5658 240.817,-38.6917"/>
</g>
</g>
</svg>
