<?xml version="1.0" encoding="UTF-8" standalone="no"?>
<!DOCTYPE svg PUBLIC "-//W3C//DTD SVG 1.1//EN"
 "http://www.w3.org/Graphics/SVG/1.1/DTD/svg11.dtd">
<!-- Generated by graphviz version 2.38.0 (20140413.2041)
 -->
<!-- Title: snakemake_dag Pages: 1 -->
<svg width="676pt" height="476pt"
 viewBox="0.00 0.00 675.50 476.00" xmlns="http://www.w3.org/2000/svg" xmlns:xlink="http://www.w3.org/1999/xlink">
<g id="graph0" class="graph" transform="scale(1 1) rotate(0) translate(4 472)">
<title>snakemake_dag</title>
<polygon fill="white" stroke="none" points="-4,4 -4,-472 671.5,-472 671.5,4 -4,4"/>
<!-- 0 -->
<g id="node1" class="node"><title>0</title>
<path fill="none" stroke="#afd856" stroke-width="2" d="M392,-36C392,-36 362,-36 362,-36 356,-36 350,-30 350,-24 350,-24 350,-12 350,-12 350,-6 356,-0 362,-0 362,-0 392,-0 392,-0 398,-0 404,-6 404,-12 404,-12 404,-24 404,-24 404,-30 398,-36 392,-36"/>
<text text-anchor="middle" x="377" y="-15.5" font-family="sans" font-size="10.00">all</text>
</g>
<!-- 1 -->
<g id="node2" class="node"><title>1</title>
<path fill="none" stroke="#59d856" stroke-width="2" d="M422.5,-108C422.5,-108 331.5,-108 331.5,-108 325.5,-108 319.5,-102 319.5,-96 319.5,-96 319.5,-84 319.5,-84 319.5,-78 325.5,-72 331.5,-72 331.5,-72 422.5,-72 422.5,-72 428.5,-72 434.5,-78 434.5,-84 434.5,-84 434.5,-96 434.5,-96 434.5,-102 428.5,-108 422.5,-108"/>
<text text-anchor="middle" x="377" y="-87.5" font-family="sans" font-size="10.00">create_plot_analyse</text>
</g>
<!-- 1&#45;&gt;0 -->
<g id="edge1" class="edge"><title>1&#45;&gt;0</title>
<path fill="none" stroke="grey" stroke-width="2" d="M377,-71.6966C377,-63.9827 377,-54.7125 377,-46.1124"/>
<polygon fill="grey" stroke="grey" stroke-width="2" points="380.5,-46.1043 377,-36.1043 373.5,-46.1044 380.5,-46.1043"/>
</g>
<!-- 2 -->
<g id="node3" class="node"><title>2</title>
<path fill="none" stroke="#d8ac56" stroke-width="2" d="M477.5,-180C477.5,-180 276.5,-180 276.5,-180 270.5,-180 264.5,-174 264.5,-168 264.5,-168 264.5,-156 264.5,-156 264.5,-150 270.5,-144 276.5,-144 276.5,-144 477.5,-144 477.5,-144 483.5,-144 489.5,-150 489.5,-156 489.5,-156 489.5,-168 489.5,-168 489.5,-174 483.5,-180 477.5,-180"/>
<text text-anchor="middle" x="377" y="-159.5" font-family="sans" font-size="10.00">recovers_same_id_from_kraken_and_blast</text>
</g>
<!-- 2&#45;&gt;1 -->
<g id="edge2" class="edge"><title>2&#45;&gt;1</title>
<path fill="none" stroke="grey" stroke-width="2" d="M377,-143.697C377,-135.983 377,-126.712 377,-118.112"/>
<polygon fill="grey" stroke="grey" stroke-width="2" points="380.5,-118.104 377,-108.104 373.5,-118.104 380.5,-118.104"/>
</g>
<!-- 3 -->
<g id="node4" class="node"><title>3</title>
<path fill="none" stroke="#56d8a9" stroke-width="2" d="M387.5,-324C387.5,-324 248.5,-324 248.5,-324 242.5,-324 236.5,-318 236.5,-312 236.5,-312 236.5,-300 236.5,-300 236.5,-294 242.5,-288 248.5,-288 248.5,-288 387.5,-288 387.5,-288 393.5,-288 399.5,-294 399.5,-300 399.5,-300 399.5,-312 399.5,-312 399.5,-318 393.5,-324 387.5,-324"/>
<text text-anchor="middle" x="318" y="-303.5" font-family="sans" font-size="10.00">classify_reads_with_database</text>
</g>
<!-- 3&#45;&gt;2 -->
<g id="edge3" class="edge"><title>3&#45;&gt;2</title>
<path fill="none" stroke="grey" stroke-width="2" d="M325.117,-287.871C335.261,-263.457 353.971,-218.426 365.933,-189.635"/>
<polygon fill="grey" stroke="grey" stroke-width="2" points="369.253,-190.767 369.858,-180.189 362.789,-188.081 369.253,-190.767"/>
</g>
<!-- 4 -->
<g id="node5" class="node"><title>4</title>
<path fill="none" stroke="#56d8d8" stroke-width="2" d="M454.5,-252C454.5,-252 383.5,-252 383.5,-252 377.5,-252 371.5,-246 371.5,-240 371.5,-240 371.5,-228 371.5,-228 371.5,-222 377.5,-216 383.5,-216 383.5,-216 454.5,-216 454.5,-216 460.5,-216 466.5,-222 466.5,-228 466.5,-228 466.5,-240 466.5,-240 466.5,-246 460.5,-252 454.5,-252"/>
<text text-anchor="middle" x="419" y="-231.5" font-family="sans" font-size="10.00">run_mega_blast</text>
</g>
<!-- 3&#45;&gt;4 -->
<g id="edge8" class="edge"><title>3&#45;&gt;4</title>
<path fill="none" stroke="grey" stroke-width="2" d="M342.707,-287.876C355.669,-278.893 371.728,-267.763 385.765,-258.034"/>
<polygon fill="grey" stroke="grey" stroke-width="2" points="387.972,-260.763 394.198,-252.19 383.985,-255.009 387.972,-260.763"/>
</g>
<!-- 4&#45;&gt;2 -->
<g id="edge4" class="edge"><title>4&#45;&gt;2</title>
<path fill="none" stroke="grey" stroke-width="2" d="M408.618,-215.697C403.735,-207.559 397.813,-197.689 392.421,-188.701"/>
<polygon fill="grey" stroke="grey" stroke-width="2" points="395.409,-186.879 387.263,-180.104 389.406,-190.48 395.409,-186.879"/>
</g>
<!-- 5 -->
<g id="node6" class="node"><title>5</title>
<path fill="none" stroke="#d88556" stroke-width="2" stroke-dasharray="5,2" d="M388,-396C388,-396 186,-396 186,-396 180,-396 174,-390 174,-384 174,-384 174,-372 174,-372 174,-366 180,-360 186,-360 186,-360 388,-360 388,-360 394,-360 400,-366 400,-372 400,-372 400,-384 400,-384 400,-390 394,-396 388,-396"/>
<text text-anchor="middle" x="287" y="-381" font-family="sans" font-size="10.00">remove_poor_quality_and_duplicate_reads</text>
<text text-anchor="middle" x="287" y="-370" font-family="sans" font-size="10.00">folder: PAIRED_SAMPLES_ADN_TEST</text>
</g>
<!-- 5&#45;&gt;3 -->
<g id="edge5" class="edge"><title>5&#45;&gt;3</title>
<path fill="none" stroke="grey" stroke-width="2" d="M294.663,-359.697C298.192,-351.728 302.456,-342.1 306.369,-333.264"/>
<polygon fill="grey" stroke="grey" stroke-width="2" points="309.576,-334.665 310.425,-324.104 303.176,-331.831 309.576,-334.665"/>
</g>
<!-- 6 -->
<g id="node7" class="node"><title>6</title>
<path fill="none" stroke="#80d856" stroke-width="2" d="M595.5,-396C595.5,-396 468.5,-396 468.5,-396 462.5,-396 456.5,-390 456.5,-384 456.5,-384 456.5,-372 456.5,-372 456.5,-366 462.5,-360 468.5,-360 468.5,-360 595.5,-360 595.5,-360 601.5,-360 607.5,-366 607.5,-372 607.5,-372 607.5,-384 607.5,-384 607.5,-390 601.5,-396 595.5,-396"/>
<text text-anchor="middle" x="532" y="-375.5" font-family="sans" font-size="10.00">create_fda_argos_database</text>
</g>
<!-- 6&#45;&gt;3 -->
<g id="edge6" class="edge"><title>6&#45;&gt;3</title>
<path fill="none" stroke="grey" stroke-width="2" d="M479.923,-359.966C449.763,-350.1 411.614,-337.622 379.922,-327.255"/>
<polygon fill="grey" stroke="grey" stroke-width="2" points="380.903,-323.893 370.31,-324.111 378.726,-330.546 380.903,-323.893"/>
</g>
<!-- 7 -->
<g id="node8" class="node"><title>7</title>
<path fill="none" stroke="#d6d856" stroke-width="2" d="M144,-396C144,-396 12,-396 12,-396 6,-396 0,-390 0,-384 0,-384 0,-372 0,-372 0,-366 6,-360 12,-360 12,-360 144,-360 144,-360 150,-360 156,-366 156,-372 156,-372 156,-384 156,-384 156,-390 150,-396 144,-396"/>
<text text-anchor="middle" x="78" y="-375.5" font-family="sans" font-size="10.00">create_mycocosm_database</text>
</g>
<!-- 7&#45;&gt;3 -->
<g id="edge7" class="edge"><title>7&#45;&gt;3</title>
<path fill="none" stroke="grey" stroke-width="2" d="M136.404,-359.966C170.52,-350.015 213.75,-337.406 249.472,-326.987"/>
<polygon fill="grey" stroke="grey" stroke-width="2" points="250.714,-330.271 259.334,-324.111 248.754,-323.551 250.714,-330.271"/>
</g>
<!-- 8 -->
<g id="node9" class="node"><title>8</title>
<path fill="none" stroke="#5682d8" stroke-width="2" stroke-dasharray="5,2" d="M655.5,-468C655.5,-468 512.5,-468 512.5,-468 506.5,-468 500.5,-462 500.5,-456 500.5,-456 500.5,-444 500.5,-444 500.5,-438 506.5,-432 512.5,-432 512.5,-432 655.5,-432 655.5,-432 661.5,-432 667.5,-438 667.5,-444 667.5,-444 667.5,-456 667.5,-456 667.5,-462 661.5,-468 655.5,-468"/>
<text text-anchor="middle" x="584" y="-447.5" font-family="sans" font-size="10.00">download_fda_argos_database</text>
</g>
<!-- 8&#45;&gt;4 -->
<g id="edge9" class="edge"><title>8&#45;&gt;4</title>
<path fill="none" stroke="grey" stroke-width="2" d="M598.778,-431.949C612.835,-413.537 630.048,-383.668 617,-360 587.255,-306.044 523.331,-272.163 476.124,-253.498"/>
<polygon fill="grey" stroke="grey" stroke-width="2" points="477.212,-250.167 466.622,-249.856 474.707,-256.703 477.212,-250.167"/>
</g>
<!-- 8&#45;&gt;6 -->
<g id="edge11" class="edge"><title>8&#45;&gt;6</title>
<path fill="none" stroke="grey" stroke-width="2" d="M571.146,-431.697C564.975,-423.389 557.463,-413.277 550.676,-404.141"/>
<polygon fill="grey" stroke="grey" stroke-width="2" points="553.479,-402.045 544.706,-396.104 547.86,-406.219 553.479,-402.045"/>
</g>
<!-- 9 -->
<g id="node10" class="node"><title>9</title>
<path fill="none" stroke="#d85656" stroke-width="2" d="M362,-468C362,-468 116,-468 116,-468 110,-468 104,-462 104,-456 104,-456 104,-444 104,-444 104,-438 110,-432 116,-432 116,-432 362,-432 362,-432 368,-432 374,-438 374,-444 374,-444 374,-456 374,-456 374,-462 368,-468 362,-468"/>
<text text-anchor="middle" x="239" y="-447.5" font-family="sans" font-size="10.00">download_all_genomes_mycocosm_fungi_database</text>
</g>
<!-- 9&#45;&gt;4 -->
<g id="edge10" class="edge"><title>9&#45;&gt;4</title>
<path fill="none" stroke="grey" stroke-width="2" d="M358.393,-431.99C377.945,-424.031 396.023,-412.539 409,-396 439.081,-357.663 432.89,-297.063 425.838,-262.174"/>
<polygon fill="grey" stroke="grey" stroke-width="2" points="429.218,-261.245 423.661,-252.225 422.38,-262.742 429.218,-261.245"/>
</g>
<!-- 9&#45;&gt;7 -->
<g id="edge12" class="edge"><title>9&#45;&gt;7</title>
<path fill="none" stroke="grey" stroke-width="2" d="M199.615,-431.876C177.605,-422.307 149.99,-410.3 126.64,-400.148"/>
<polygon fill="grey" stroke="grey" stroke-width="2" points="127.823,-396.846 117.257,-396.068 125.032,-403.265 127.823,-396.846"/>
</g>
</g>
</svg>
