<?xml version="1.0" encoding="UTF-8" standalone="no"?>
<!DOCTYPE svg PUBLIC "-//W3C//DTD SVG 1.1//EN"
 "http://www.w3.org/Graphics/SVG/1.1/DTD/svg11.dtd">
<!-- Generated by graphviz version 2.38.0 (20140413.2041)
 -->
<!-- Title: snakemake_dag Pages: 1 -->
<svg width="705pt" height="332pt"
 viewBox="0.00 0.00 704.57 332.00" xmlns="http://www.w3.org/2000/svg" xmlns:xlink="http://www.w3.org/1999/xlink">
<g id="graph0" class="graph" transform="scale(1 1) rotate(0) translate(4 328)">
<title>snakemake_dag</title>
<polygon fill="white" stroke="none" points="-4,4 -4,-328 700.567,-328 700.567,4 -4,4"/>
<!-- 0 -->
<g id="node1" class="node"><title>0</title>
<path fill="none" stroke="#56c1d8" stroke-width="2" d="M351.567,-36C351.567,-36 321.567,-36 321.567,-36 315.567,-36 309.567,-30 309.567,-24 309.567,-24 309.567,-12 309.567,-12 309.567,-6 315.567,-0 321.567,-0 321.567,-0 351.567,-0 351.567,-0 357.567,-0 363.567,-6 363.567,-12 363.567,-12 363.567,-24 363.567,-24 363.567,-30 357.567,-36 351.567,-36"/>
<text text-anchor="middle" x="336.567" y="-15.5" font-family="sans" font-size="10.00">all</text>
</g>
<!-- 1 -->
<g id="node2" class="node"><title>1</title>
<path fill="none" stroke="#56d8c1" stroke-width="2" d="M372.067,-108C372.067,-108 301.067,-108 301.067,-108 295.067,-108 289.067,-102 289.067,-96 289.067,-96 289.067,-84 289.067,-84 289.067,-78 295.067,-72 301.067,-72 301.067,-72 372.067,-72 372.067,-72 378.067,-72 384.067,-78 384.067,-84 384.067,-84 384.067,-96 384.067,-96 384.067,-102 378.067,-108 372.067,-108"/>
<text text-anchor="middle" x="336.567" y="-87.5" font-family="sans" font-size="10.00">run_mega_blast</text>
</g>
<!-- 1&#45;&gt;0 -->
<g id="edge1" class="edge"><title>1&#45;&gt;0</title>
<path fill="none" stroke="grey" stroke-width="2" d="M336.567,-71.6966C336.567,-63.9827 336.567,-54.7125 336.567,-46.1124"/>
<polygon fill="grey" stroke="grey" stroke-width="2" points="340.067,-46.1043 336.567,-36.1043 333.067,-46.1044 340.067,-46.1043"/>
</g>
<!-- 2 -->
<g id="node3" class="node"><title>2</title>
<path fill="none" stroke="#d85656" stroke-width="2" d="M406.067,-180C406.067,-180 267.067,-180 267.067,-180 261.067,-180 255.067,-174 255.067,-168 255.067,-168 255.067,-156 255.067,-156 255.067,-150 261.067,-144 267.067,-144 267.067,-144 406.067,-144 406.067,-144 412.067,-144 418.067,-150 418.067,-156 418.067,-156 418.067,-168 418.067,-168 418.067,-174 412.067,-180 406.067,-180"/>
<text text-anchor="middle" x="336.567" y="-159.5" font-family="sans" font-size="10.00">classify_reads_with_database</text>
</g>
<!-- 2&#45;&gt;1 -->
<g id="edge2" class="edge"><title>2&#45;&gt;1</title>
<path fill="none" stroke="grey" stroke-width="2" d="M336.567,-143.697C336.567,-135.983 336.567,-126.712 336.567,-118.112"/>
<polygon fill="grey" stroke="grey" stroke-width="2" points="340.067,-118.104 336.567,-108.104 333.067,-118.104 340.067,-118.104"/>
</g>
<!-- 3 -->
<g id="node4" class="node"><title>3</title>
<path fill="none" stroke="#568ad8" stroke-width="2" stroke-dasharray="5,2" d="M255.067,-324C255.067,-324 112.067,-324 112.067,-324 106.067,-324 100.067,-318 100.067,-312 100.067,-312 100.067,-300 100.067,-300 100.067,-294 106.067,-288 112.067,-288 112.067,-288 255.067,-288 255.067,-288 261.067,-288 267.067,-294 267.067,-300 267.067,-300 267.067,-312 267.067,-312 267.067,-318 261.067,-324 255.067,-324"/>
<text text-anchor="middle" x="183.567" y="-303.5" font-family="sans" font-size="10.00">download_fda_argos_database</text>
</g>
<!-- 3&#45;&gt;1 -->
<g id="edge3" class="edge"><title>3&#45;&gt;1</title>
<path fill="none" stroke="grey" stroke-width="2" d="M100.067,-292.993C41.6859,-280.785 -21.1104,-257.573 7.56678,-216 68.8278,-127.191 202.098,-101.424 278.899,-93.9848"/>
<polygon fill="grey" stroke="grey" stroke-width="2" points="279.242,-97.4681 288.89,-93.0895 278.617,-90.4961 279.242,-97.4681"/>
</g>
<!-- 6 -->
<g id="node7" class="node"><title>6</title>
<path fill="none" stroke="#bed856" stroke-width="2" d="M400.067,-252C400.067,-252 273.067,-252 273.067,-252 267.067,-252 261.067,-246 261.067,-240 261.067,-240 261.067,-228 261.067,-228 261.067,-222 267.067,-216 273.067,-216 273.067,-216 400.067,-216 400.067,-216 406.067,-216 412.067,-222 412.067,-228 412.067,-228 412.067,-240 412.067,-240 412.067,-246 406.067,-252 400.067,-252"/>
<text text-anchor="middle" x="336.567" y="-231.5" font-family="sans" font-size="10.00">create_fda_argos_database</text>
</g>
<!-- 3&#45;&gt;6 -->
<g id="edge8" class="edge"><title>3&#45;&gt;6</title>
<path fill="none" stroke="grey" stroke-width="2" d="M220.995,-287.876C241.818,-278.349 267.92,-266.407 290.048,-256.283"/>
<polygon fill="grey" stroke="grey" stroke-width="2" points="291.623,-259.411 299.26,-252.068 288.711,-253.046 291.623,-259.411"/>
</g>
<!-- 4 -->
<g id="node5" class="node"><title>4</title>
<path fill="none" stroke="#d88d56" stroke-width="2" d="M684.567,-324C684.567,-324 438.567,-324 438.567,-324 432.567,-324 426.567,-318 426.567,-312 426.567,-312 426.567,-300 426.567,-300 426.567,-294 432.567,-288 438.567,-288 438.567,-288 684.567,-288 684.567,-288 690.567,-288 696.567,-294 696.567,-300 696.567,-300 696.567,-312 696.567,-312 696.567,-318 690.567,-324 684.567,-324"/>
<text text-anchor="middle" x="561.567" y="-303.5" font-family="sans" font-size="10.00">download_all_genomes_mycocosm_fungi_database</text>
</g>
<!-- 4&#45;&gt;1 -->
<g id="edge4" class="edge"><title>4&#45;&gt;1</title>
<path fill="none" stroke="grey" stroke-width="2" d="M577.172,-287.68C591.979,-269.039 609.989,-238.975 595.567,-216 551.625,-146.001 456.218,-114.263 394.276,-100.573"/>
<polygon fill="grey" stroke="grey" stroke-width="2" points="394.765,-97.0988 384.256,-98.4507 393.314,-103.947 394.765,-97.0988"/>
</g>
<!-- 7 -->
<g id="node8" class="node"><title>7</title>
<path fill="none" stroke="#59d856" stroke-width="2" d="M574.567,-252C574.567,-252 442.567,-252 442.567,-252 436.567,-252 430.567,-246 430.567,-240 430.567,-240 430.567,-228 430.567,-228 430.567,-222 436.567,-216 442.567,-216 442.567,-216 574.567,-216 574.567,-216 580.567,-216 586.567,-222 586.567,-228 586.567,-228 586.567,-240 586.567,-240 586.567,-246 580.567,-252 574.567,-252"/>
<text text-anchor="middle" x="508.567" y="-231.5" font-family="sans" font-size="10.00">create_mycocosm_database</text>
</g>
<!-- 4&#45;&gt;7 -->
<g id="edge9" class="edge"><title>4&#45;&gt;7</title>
<path fill="none" stroke="grey" stroke-width="2" d="M548.466,-287.697C542.176,-279.389 534.519,-269.277 527.602,-260.141"/>
<polygon fill="grey" stroke="grey" stroke-width="2" points="530.344,-257.964 521.517,-252.104 524.763,-262.19 530.344,-257.964"/>
</g>
<!-- 5 -->
<g id="node6" class="node"><title>5</title>
<path fill="none" stroke="#88d856" stroke-width="2" stroke-dasharray="5,2" d="M230.567,-252C230.567,-252 28.5668,-252 28.5668,-252 22.5668,-252 16.5668,-246 16.5668,-240 16.5668,-240 16.5668,-228 16.5668,-228 16.5668,-222 22.5668,-216 28.5668,-216 28.5668,-216 230.567,-216 230.567,-216 236.567,-216 242.567,-222 242.567,-228 242.567,-228 242.567,-240 242.567,-240 242.567,-246 236.567,-252 230.567,-252"/>
<text text-anchor="middle" x="129.567" y="-237" font-family="sans" font-size="10.00">remove_poor_quality_and_duplicate_reads</text>
<text text-anchor="middle" x="129.567" y="-226" font-family="sans" font-size="10.00">folder: PAIRED_SAMPLES_ADN_TEST</text>
</g>
<!-- 5&#45;&gt;2 -->
<g id="edge5" class="edge"><title>5&#45;&gt;2</title>
<path fill="none" stroke="grey" stroke-width="2" d="M179.94,-215.966C208.988,-206.142 245.697,-193.729 276.273,-183.389"/>
<polygon fill="grey" stroke="grey" stroke-width="2" points="277.616,-186.63 285.968,-180.111 275.373,-179.999 277.616,-186.63"/>
</g>
<!-- 6&#45;&gt;2 -->
<g id="edge6" class="edge"><title>6&#45;&gt;2</title>
<path fill="none" stroke="grey" stroke-width="2" d="M336.567,-215.697C336.567,-207.983 336.567,-198.712 336.567,-190.112"/>
<polygon fill="grey" stroke="grey" stroke-width="2" points="340.067,-190.104 336.567,-180.104 333.067,-190.104 340.067,-190.104"/>
</g>
<!-- 7&#45;&gt;2 -->
<g id="edge7" class="edge"><title>7&#45;&gt;2</title>
<path fill="none" stroke="grey" stroke-width="2" d="M466.491,-215.876C442.768,-206.222 412.951,-194.087 387.866,-183.878"/>
<polygon fill="grey" stroke="grey" stroke-width="2" points="389.088,-180.596 378.506,-180.068 386.449,-187.08 389.088,-180.596"/>
</g>
</g>
</svg>
