<?xml version="1.0" encoding="UTF-8" standalone="no"?>
<!DOCTYPE svg PUBLIC "-//W3C//DTD SVG 1.1//EN"
 "http://www.w3.org/Graphics/SVG/1.1/DTD/svg11.dtd">
<!-- Generated by graphviz version 2.38.0 (20140413.2041)
 -->
<!-- Title: snakemake_dag Pages: 1 -->
<svg width="412pt" height="260pt"
 viewBox="0.00 0.00 411.50 260.00" xmlns="http://www.w3.org/2000/svg" xmlns:xlink="http://www.w3.org/1999/xlink">
<g id="graph0" class="graph" transform="scale(1 1) rotate(0) translate(4 256)">
<title>snakemake_dag</title>
<polygon fill="white" stroke="none" points="-4,4 -4,-256 407.5,-256 407.5,4 -4,4"/>
<!-- 0 -->
<g id="node1" class="node"><title>0</title>
<path fill="none" stroke="#56d8c9" stroke-width="2" d="M231,-36C231,-36 201,-36 201,-36 195,-36 189,-30 189,-24 189,-24 189,-12 189,-12 189,-6 195,-0 201,-0 201,-0 231,-0 231,-0 237,-0 243,-6 243,-12 243,-12 243,-24 243,-24 243,-30 237,-36 231,-36"/>
<text text-anchor="middle" x="216" y="-15.5" font-family="sans" font-size="10.00">all</text>
</g>
<!-- 1 -->
<g id="node2" class="node"><title>1</title>
<path fill="none" stroke="#d85656" stroke-width="2" d="M285.5,-108C285.5,-108 146.5,-108 146.5,-108 140.5,-108 134.5,-102 134.5,-96 134.5,-96 134.5,-84 134.5,-84 134.5,-78 140.5,-72 146.5,-72 146.5,-72 285.5,-72 285.5,-72 291.5,-72 297.5,-78 297.5,-84 297.5,-84 297.5,-96 297.5,-96 297.5,-102 291.5,-108 285.5,-108"/>
<text text-anchor="middle" x="216" y="-87.5" font-family="sans" font-size="10.00">classify_reads_with_database</text>
</g>
<!-- 1&#45;&gt;0 -->
<g id="edge1" class="edge"><title>1&#45;&gt;0</title>
<path fill="none" stroke="grey" stroke-width="2" d="M216,-71.6966C216,-63.9827 216,-54.7125 216,-46.1124"/>
<polygon fill="grey" stroke="grey" stroke-width="2" points="219.5,-46.1043 216,-36.1043 212.5,-46.1044 219.5,-46.1043"/>
</g>
<!-- 2 -->
<g id="node3" class="node"><title>2</title>
<path fill="none" stroke="#56a2d8" stroke-width="2" stroke-dasharray="5,2" d="M214,-180C214,-180 12,-180 12,-180 6,-180 0,-174 0,-168 0,-168 0,-156 0,-156 0,-150 6,-144 12,-144 12,-144 214,-144 214,-144 220,-144 226,-150 226,-156 226,-156 226,-168 226,-168 226,-174 220,-180 214,-180"/>
<text text-anchor="middle" x="113" y="-165" font-family="sans" font-size="10.00">remove_poor_quality_and_duplicate_reads</text>
<text text-anchor="middle" x="113" y="-154" font-family="sans" font-size="10.00">folder: PAIRED_SAMPLES_ADN_TEST</text>
</g>
<!-- 2&#45;&gt;1 -->
<g id="edge2" class="edge"><title>2&#45;&gt;1</title>
<path fill="none" stroke="grey" stroke-width="2" d="M138.197,-143.876C151.414,-134.893 167.792,-123.763 182.107,-114.034"/>
<polygon fill="grey" stroke="grey" stroke-width="2" points="184.403,-116.705 190.707,-108.19 180.468,-110.916 184.403,-116.705"/>
</g>
<!-- 3 -->
<g id="node4" class="node"><title>3</title>
<path fill="none" stroke="#c6d856" stroke-width="2" d="M383.5,-180C383.5,-180 256.5,-180 256.5,-180 250.5,-180 244.5,-174 244.5,-168 244.5,-168 244.5,-156 244.5,-156 244.5,-150 250.5,-144 256.5,-144 256.5,-144 383.5,-144 383.5,-144 389.5,-144 395.5,-150 395.5,-156 395.5,-156 395.5,-168 395.5,-168 395.5,-174 389.5,-180 383.5,-180"/>
<text text-anchor="middle" x="320" y="-159.5" font-family="sans" font-size="10.00">create_fda_argos_database</text>
</g>
<!-- 3&#45;&gt;1 -->
<g id="edge3" class="edge"><title>3&#45;&gt;1</title>
<path fill="none" stroke="grey" stroke-width="2" d="M294.559,-143.876C281.213,-134.893 264.676,-123.763 250.222,-114.034"/>
<polygon fill="grey" stroke="grey" stroke-width="2" points="251.789,-110.87 241.539,-108.19 247.881,-116.677 251.789,-110.87"/>
</g>
<!-- 4 -->
<g id="node5" class="node"><title>4</title>
<path fill="none" stroke="#56d87b" stroke-width="2" stroke-dasharray="5,2" d="M391.5,-252C391.5,-252 248.5,-252 248.5,-252 242.5,-252 236.5,-246 236.5,-240 236.5,-240 236.5,-228 236.5,-228 236.5,-222 242.5,-216 248.5,-216 248.5,-216 391.5,-216 391.5,-216 397.5,-216 403.5,-222 403.5,-228 403.5,-228 403.5,-240 403.5,-240 403.5,-246 397.5,-252 391.5,-252"/>
<text text-anchor="middle" x="320" y="-231.5" font-family="sans" font-size="10.00">download_fda_argos_database</text>
</g>
<!-- 4&#45;&gt;3 -->
<g id="edge4" class="edge"><title>4&#45;&gt;3</title>
<path fill="none" stroke="grey" stroke-width="2" d="M320,-215.697C320,-207.983 320,-198.712 320,-190.112"/>
<polygon fill="grey" stroke="grey" stroke-width="2" points="323.5,-190.104 320,-180.104 316.5,-190.104 323.5,-190.104"/>
</g>
</g>
</svg>
