<?xml version="1.0" encoding="UTF-8" standalone="no"?>
<!DOCTYPE svg PUBLIC "-//W3C//DTD SVG 1.1//EN"
 "http://www.w3.org/Graphics/SVG/1.1/DTD/svg11.dtd">
<!-- Generated by graphviz version 2.38.0 (20140413.2041)
 -->
<!-- Title: snakemake_dag Pages: 1 -->
<svg width="454pt" height="188pt"
 viewBox="0.00 0.00 453.50 188.00" xmlns="http://www.w3.org/2000/svg" xmlns:xlink="http://www.w3.org/1999/xlink">
<g id="graph0" class="graph" transform="scale(1 1) rotate(0) translate(4 184)">
<title>snakemake_dag</title>
<polygon fill="white" stroke="none" points="-4,4 -4,-184 449.5,-184 449.5,4 -4,4"/>
<!-- 0 -->
<g id="node1" class="node"><title>0</title>
<path fill="none" stroke="#56d8d8" stroke-width="2" d="M245,-36C245,-36 215,-36 215,-36 209,-36 203,-30 203,-24 203,-24 203,-12 203,-12 203,-6 209,-0 215,-0 215,-0 245,-0 245,-0 251,-0 257,-6 257,-12 257,-12 257,-24 257,-24 257,-30 251,-36 245,-36"/>
<text text-anchor="middle" x="230" y="-15.5" font-family="sans" font-size="10.00">all</text>
</g>
<!-- 1 -->
<g id="node2" class="node"><title>1</title>
<path fill="none" stroke="#59d856" stroke-width="2" stroke-dasharray="5,2" d="M214,-180C214,-180 12,-180 12,-180 6,-180 0,-174 0,-168 0,-168 0,-156 0,-156 0,-150 6,-144 12,-144 12,-144 214,-144 214,-144 220,-144 226,-150 226,-156 226,-156 226,-168 226,-168 226,-174 220,-180 214,-180"/>
<text text-anchor="middle" x="113" y="-165" font-family="sans" font-size="10.00">remove_poor_quality_and_duplicate_reads</text>
<text text-anchor="middle" x="113" y="-154" font-family="sans" font-size="10.00">folder: PAIRED_SAMPLES_ADN_TEST</text>
</g>
<!-- 1&#45;&gt;0 -->
<g id="edge1" class="edge"><title>1&#45;&gt;0</title>
<path fill="none" stroke="grey" stroke-width="2" d="M114.237,-143.886C116.419,-124.597 122.437,-93.1738 139,-72 152.973,-54.1373 174.77,-41.1417 193.528,-32.4903"/>
<polygon fill="grey" stroke="grey" stroke-width="2" points="194.96,-35.6844 202.723,-28.4749 192.158,-29.2694 194.96,-35.6844"/>
</g>
<!-- 2 -->
<g id="node3" class="node"><title>2</title>
<path fill="none" stroke="#d6d856" stroke-width="2" d="M299.5,-108C299.5,-108 160.5,-108 160.5,-108 154.5,-108 148.5,-102 148.5,-96 148.5,-96 148.5,-84 148.5,-84 148.5,-78 154.5,-72 160.5,-72 160.5,-72 299.5,-72 299.5,-72 305.5,-72 311.5,-78 311.5,-84 311.5,-84 311.5,-96 311.5,-96 311.5,-102 305.5,-108 299.5,-108"/>
<text text-anchor="middle" x="230" y="-87.5" font-family="sans" font-size="10.00">classify_reads_with_database</text>
</g>
<!-- 1&#45;&gt;2 -->
<g id="edge4" class="edge"><title>1&#45;&gt;2</title>
<path fill="none" stroke="grey" stroke-width="2" d="M141.621,-143.876C156.919,-134.724 175.943,-123.342 192.418,-113.485"/>
<polygon fill="grey" stroke="grey" stroke-width="2" points="194.484,-116.327 201.269,-108.19 190.89,-110.32 194.484,-116.327"/>
</g>
<!-- 2&#45;&gt;0 -->
<g id="edge2" class="edge"><title>2&#45;&gt;0</title>
<path fill="none" stroke="grey" stroke-width="2" d="M230,-71.6966C230,-63.9827 230,-54.7125 230,-46.1124"/>
<polygon fill="grey" stroke="grey" stroke-width="2" points="233.5,-46.1043 230,-36.1043 226.5,-46.1044 233.5,-46.1043"/>
</g>
<!-- 3 -->
<g id="node4" class="node"><title>3</title>
<path fill="none" stroke="#d85656" stroke-width="2" stroke-dasharray="5,2" d="M433.5,-180C433.5,-180 256.5,-180 256.5,-180 250.5,-180 244.5,-174 244.5,-168 244.5,-168 244.5,-156 244.5,-156 244.5,-150 250.5,-144 256.5,-144 256.5,-144 433.5,-144 433.5,-144 439.5,-144 445.5,-150 445.5,-156 445.5,-156 445.5,-168 445.5,-168 445.5,-174 439.5,-180 433.5,-180"/>
<text text-anchor="middle" x="345" y="-159.5" font-family="sans" font-size="10.00">create_fda_argos_kraken_2_database</text>
</g>
<!-- 3&#45;&gt;0 -->
<g id="edge3" class="edge"><title>3&#45;&gt;0</title>
<path fill="none" stroke="grey" stroke-width="2" d="M343.966,-143.909C342.009,-124.64 336.353,-93.2358 320,-72 306.339,-54.2602 284.919,-41.3032 266.402,-32.6423"/>
<polygon fill="grey" stroke="grey" stroke-width="2" points="267.601,-29.3458 257.04,-28.5023 264.77,-35.7477 267.601,-29.3458"/>
</g>
<!-- 3&#45;&gt;2 -->
<g id="edge5" class="edge"><title>3&#45;&gt;2</title>
<path fill="none" stroke="grey" stroke-width="2" d="M316.868,-143.876C301.832,-134.724 283.133,-123.342 266.94,-113.485"/>
<polygon fill="grey" stroke="grey" stroke-width="2" points="268.602,-110.4 258.24,-108.19 264.962,-116.379 268.602,-110.4"/>
</g>
</g>
</svg>
