<?xml version="1.0" encoding="UTF-8" standalone="no"?>
<!DOCTYPE svg PUBLIC "-//W3C//DTD SVG 1.1//EN"
 "http://www.w3.org/Graphics/SVG/1.1/DTD/svg11.dtd">
<!-- Generated by graphviz version 2.38.0 (20140413.2041)
 -->
<!-- Title: snakemake_dag Pages: 1 -->
<svg width="692pt" height="260pt"
 viewBox="0.00 0.00 692.00 260.00" xmlns="http://www.w3.org/2000/svg" xmlns:xlink="http://www.w3.org/1999/xlink">
<g id="graph0" class="graph" transform="scale(1 1) rotate(0) translate(4 256)">
<title>snakemake_dag</title>
<polygon fill="white" stroke="none" points="-4,4 -4,-256 688,-256 688,4 -4,4"/>
<!-- 0 -->
<g id="node1" class="node"><title>0</title>
<path fill="none" stroke="#97d856" stroke-width="2" d="M436,-36C436,-36 406,-36 406,-36 400,-36 394,-30 394,-24 394,-24 394,-12 394,-12 394,-6 400,-0 406,-0 406,-0 436,-0 436,-0 442,-0 448,-6 448,-12 448,-12 448,-24 448,-24 448,-30 442,-36 436,-36"/>
<text text-anchor="middle" x="421" y="-15.5" font-family="sans" font-size="10.00">all</text>
</g>
<!-- 1 -->
<g id="node2" class="node"><title>1</title>
<path fill="none" stroke="#59d856" stroke-width="2" d="M389.5,-108C389.5,-108 250.5,-108 250.5,-108 244.5,-108 238.5,-102 238.5,-96 238.5,-96 238.5,-84 238.5,-84 238.5,-78 244.5,-72 250.5,-72 250.5,-72 389.5,-72 389.5,-72 395.5,-72 401.5,-78 401.5,-84 401.5,-84 401.5,-96 401.5,-96 401.5,-102 395.5,-108 389.5,-108"/>
<text text-anchor="middle" x="320" y="-87.5" font-family="sans" font-size="10.00">classify_reads_with_database</text>
</g>
<!-- 1&#45;&gt;0 -->
<g id="edge1" class="edge"><title>1&#45;&gt;0</title>
<path fill="none" stroke="grey" stroke-width="2" d="M344.707,-71.8761C357.669,-62.8931 373.728,-51.7625 387.765,-42.0341"/>
<polygon fill="grey" stroke="grey" stroke-width="2" points="389.972,-44.7628 396.198,-36.1898 385.985,-39.0095 389.972,-44.7628"/>
</g>
<!-- 2 -->
<g id="node3" class="node"><title>2</title>
<path fill="none" stroke="#56d8d8" stroke-width="2" d="M589,-108C589,-108 457,-108 457,-108 451,-108 445,-102 445,-96 445,-96 445,-84 445,-84 445,-78 451,-72 457,-72 457,-72 589,-72 589,-72 595,-72 601,-78 601,-84 601,-84 601,-96 601,-96 601,-102 595,-108 589,-108"/>
<text text-anchor="middle" x="523" y="-87.5" font-family="sans" font-size="10.00">create_mycocosm_database</text>
</g>
<!-- 2&#45;&gt;0 -->
<g id="edge2" class="edge"><title>2&#45;&gt;0</title>
<path fill="none" stroke="grey" stroke-width="2" d="M498.048,-71.8761C484.958,-62.8931 468.74,-51.7625 454.564,-42.0341"/>
<polygon fill="grey" stroke="grey" stroke-width="2" points="456.274,-38.9624 446.048,-36.1898 452.313,-44.734 456.274,-38.9624"/>
</g>
<!-- 3 -->
<g id="node4" class="node"><title>3</title>
<path fill="none" stroke="#d6d856" stroke-width="2" stroke-dasharray="5,2" d="M214,-180C214,-180 12,-180 12,-180 6,-180 0,-174 0,-168 0,-168 0,-156 0,-156 0,-150 6,-144 12,-144 12,-144 214,-144 214,-144 220,-144 226,-150 226,-156 226,-156 226,-168 226,-168 226,-174 220,-180 214,-180"/>
<text text-anchor="middle" x="113" y="-165" font-family="sans" font-size="10.00">remove_poor_quality_and_duplicate_reads</text>
<text text-anchor="middle" x="113" y="-154" font-family="sans" font-size="10.00">folder: PAIRED_SAMPLES_ADN_TEST</text>
</g>
<!-- 3&#45;&gt;1 -->
<g id="edge3" class="edge"><title>3&#45;&gt;1</title>
<path fill="none" stroke="grey" stroke-width="2" d="M163.373,-143.966C192.421,-134.142 229.13,-121.729 259.706,-111.389"/>
<polygon fill="grey" stroke="grey" stroke-width="2" points="261.049,-114.63 269.401,-108.111 258.807,-107.999 261.049,-114.63"/>
</g>
<!-- 4 -->
<g id="node5" class="node"><title>4</title>
<path fill="none" stroke="#56d89a" stroke-width="2" d="M383.5,-180C383.5,-180 256.5,-180 256.5,-180 250.5,-180 244.5,-174 244.5,-168 244.5,-168 244.5,-156 244.5,-156 244.5,-150 250.5,-144 256.5,-144 256.5,-144 383.5,-144 383.5,-144 389.5,-144 395.5,-150 395.5,-156 395.5,-156 395.5,-168 395.5,-168 395.5,-174 389.5,-180 383.5,-180"/>
<text text-anchor="middle" x="320" y="-159.5" font-family="sans" font-size="10.00">create_fda_argos_database</text>
</g>
<!-- 4&#45;&gt;1 -->
<g id="edge4" class="edge"><title>4&#45;&gt;1</title>
<path fill="none" stroke="grey" stroke-width="2" d="M320,-143.697C320,-135.983 320,-126.712 320,-118.112"/>
<polygon fill="grey" stroke="grey" stroke-width="2" points="323.5,-118.104 320,-108.104 316.5,-118.104 323.5,-118.104"/>
</g>
<!-- 5 -->
<g id="node6" class="node"><title>5</title>
<path fill="none" stroke="#d85656" stroke-width="2" d="M672,-180C672,-180 426,-180 426,-180 420,-180 414,-174 414,-168 414,-168 414,-156 414,-156 414,-150 420,-144 426,-144 426,-144 672,-144 672,-144 678,-144 684,-150 684,-156 684,-156 684,-168 684,-168 684,-174 678,-180 672,-180"/>
<text text-anchor="middle" x="549" y="-159.5" font-family="sans" font-size="10.00">download_all_genomes_mycocosm_fungi_database</text>
</g>
<!-- 5&#45;&gt;2 -->
<g id="edge5" class="edge"><title>5&#45;&gt;2</title>
<path fill="none" stroke="grey" stroke-width="2" d="M542.573,-143.697C539.645,-135.813 536.113,-126.304 532.86,-117.546"/>
<polygon fill="grey" stroke="grey" stroke-width="2" points="536.116,-116.26 529.353,-108.104 529.554,-118.697 536.116,-116.26"/>
</g>
<!-- 6 -->
<g id="node7" class="node"><title>6</title>
<path fill="none" stroke="#569ad8" stroke-width="2" stroke-dasharray="5,2" d="M391.5,-252C391.5,-252 248.5,-252 248.5,-252 242.5,-252 236.5,-246 236.5,-240 236.5,-240 236.5,-228 236.5,-228 236.5,-222 242.5,-216 248.5,-216 248.5,-216 391.5,-216 391.5,-216 397.5,-216 403.5,-222 403.5,-228 403.5,-228 403.5,-240 403.5,-240 403.5,-246 397.5,-252 391.5,-252"/>
<text text-anchor="middle" x="320" y="-231.5" font-family="sans" font-size="10.00">download_fda_argos_database</text>
</g>
<!-- 6&#45;&gt;4 -->
<g id="edge6" class="edge"><title>6&#45;&gt;4</title>
<path fill="none" stroke="grey" stroke-width="2" d="M320,-215.697C320,-207.983 320,-198.712 320,-190.112"/>
<polygon fill="grey" stroke="grey" stroke-width="2" points="323.5,-190.104 320,-180.104 316.5,-190.104 323.5,-190.104"/>
</g>
</g>
</svg>
